<?xml version="1.0" encoding="UTF-8" standalone="no"?>
<!DOCTYPE svg PUBLIC "-//W3C//DTD SVG 1.1//EN" "http://www.w3.org/Graphics/SVG/1.1/DTD/svg11.dtd">
<svg width="100%" height="100%" viewBox="0 0 500 500" version="1.1" xmlns="http://www.w3.org/2000/svg" xmlns:xlink="http://www.w3.org/1999/xlink" xml:space="preserve" xmlns:serif="http://www.serif.com/" style="fill-rule:evenodd;clip-rule:evenodd;stroke-linecap:round;stroke-linejoin:round;stroke-miterlimit:1.5;">
    <g transform="matrix(1,0,0,1,-578,0)">
        <g id="Artboard1" transform="matrix(1,0,0,1,578,0)">
            <rect x="0" y="0" width="500" height="500" style="fill:none;"/>
            <g id="lamp" transform="matrix(1,0,0,1,-2.84217e-14,-57.6435)">
                <g transform="matrix(0.954545,0,0,1,12.3182,0)">
                    <path d="M293,460.66C293,454.777 287.996,450 281.832,450L216.168,450C210.004,450 205,454.777 205,460.66C205,460.66 223.979,476 230.143,476L267.857,476C274.021,476 293,460.66 293,460.66Z" style="fill:rgb(39,37,37);"/>
                </g>
                <g transform="matrix(1.29545,0,0,0.692308,-72.5682,87.4615)">
                    <path d="M293,463C293,455.825 289.887,450 286.053,450L211.947,450C208.113,450 205,455.825 205,463C205,470.175 208.113,476 211.947,476L286.053,476C289.887,476 293,470.175 293,463Z" style="fill:rgb(39,37,37);"/>
                </g>
                <g transform="matrix(1.29545,0,0,0.692308,-72.5682,113.462)">
                    <path d="M293,463C293,455.825 289.887,450 286.053,450L211.947,450C208.113,450 205,455.825 205,463C205,470.175 208.113,476 211.947,476L286.053,476C289.887,476 293,470.175 293,463Z" style="fill:rgb(39,37,37);"/>
                </g>
                <path d="M243.385,139.638C248.74,139.101 253.946,139.164 258.975,139.934C258.975,139.934 259.626,140.022 259.95,140.068C365.962,154.935 360.034,270.966 334,297C307.177,323.823 307,385 307,385L193,385C193,385 192.823,323.823 166,297C139.767,270.767 133.949,153.164 242.49,139.746C242.788,139.709 243.385,139.638 243.385,139.638Z" style="fill:rgb(65,63,62);"/>
                <clipPath id="_clip1">
                    <path d="M243.385,139.638C248.74,139.101 253.946,139.164 258.975,139.934C258.975,139.934 259.626,140.022 259.95,140.068C365.962,154.935 360.034,270.966 334,297C307.177,323.823 307,385 307,385L193,385C193,385 192.823,323.823 166,297C139.767,270.767 133.949,153.164 242.49,139.746C242.788,139.709 243.385,139.638 243.385,139.638Z"/>
                </clipPath>
                <g clip-path="url(#_clip1)">
                    <path d="M177,203C177,203 197.224,161.957 250,159" style="fill:none;stroke:rgb(101,103,105);stroke-width:15.97px;"/>
                    <g transform="matrix(0.711922,0,0,1,71.9277,0)">
                        <path d="M226,385L226,332C226,332 227.102,316 217,316C206.898,316 208,332 208,332L292,332C292,332 294.482,316.485 285,316C275.518,315.515 277,332 277,332L277,385" style="fill:none;stroke:rgb(235,235,235);stroke-width:6.08px;"/>
                    </g>
                </g>
            </g>
        </g>
    </g>
</svg>
